<!--?xml version="1.0" encoding="utf-8"?-->
<!-- Generator: Adobe Illustrator 18.1.1, SVG Export Plug-In . SVG Version: 6.00 Build 0)  -->

<svg version="1.1" id="_x32_" xmlns="http://www.w3.org/2000/svg" xmlns:xlink="http://www.w3.org/1999/xlink" x="0px" y="0px" viewBox="0 0 512 512" style="width: 256px; height: 256px; opacity: 1;" xml:space="preserve">
<style type="text/css">
	.st0{fill:#4B4B4B;}
</style>
<g>
	<rect x="125.131" y="180.04" class="st0" width="68.881" height="192.866" style="fill: rgb(223, 86, 86);"></rect>
	<rect x="317.989" y="235.146" class="st0" width="68.88" height="137.76" style="fill: rgb(223, 86, 86);"></rect>
	<rect x="221.56" y="138.717" class="st0" width="68.881" height="234.189" style="fill: rgb(223, 86, 86);"></rect>
	<path class="st0" d="M445.376,213.665l61.467-9.168c-9.253-45.428-30.566-86.533-60.372-119.69l-43.948,43.939
		C423.311,152.692,438.28,181.662,445.376,213.665z" style="fill: rgb(223, 86, 86);"></path>
	<path class="st0" d="M510.838,231.719l-61.458,9.153c0.376,4.931,0.626,9.913,0.626,14.945
		c-0.008,15.212-1.796,29.972-5.098,44.156l59.352,18.414c5.04-20.043,7.748-41.005,7.74-62.569
		C512,247.684,511.574,239.651,510.838,231.719z" style="fill: rgb(223, 86, 86);"></path>
	<path class="st0" d="M393.18,392.991c-35.205,35.163-83.507,56.819-137.176,56.827c-53.676-0.008-101.987-21.664-137.184-56.827
		c-35.163-35.205-56.811-83.507-56.827-137.175c0.016-53.677,21.664-101.979,56.827-137.184
		c32.155-32.112,75.258-52.907,123.376-56.284V0.188c-65.136,3.468-124.028,31.36-167.214,74.606
		C28.702,121.015-0.016,185.214,0,255.817c-0.016,70.593,28.702,134.784,74.982,181.014c46.22,46.279,110.42,74.998,181.022,74.981
		c70.594,0.017,134.794-28.702,181.015-74.981c25.81-25.785,46.146-57.17,59.084-92.125l-59.335-18.413
		C426.93,351.485,412.019,374.135,393.18,392.991z" style="fill: rgb(223, 86, 86);"></path>
	<path class="st0" d="M427.014,65.341c-42.092-37.83-96.997-61.96-157.26-65.152V62.34c43.271,3.026,82.463,20.168,113.321,46.948
		L427.014,65.341z" style="fill: rgb(223, 86, 86);"></path>
</g>
</svg>
