<!--?xml version="1.0" encoding="utf-8"?-->
<!-- Generator: Adobe Illustrator 18.1.1, SVG Export Plug-In . SVG Version: 6.00 Build 0)  -->

<svg version="1.1" id="_x32_" xmlns="http://www.w3.org/2000/svg" xmlns:xlink="http://www.w3.org/1999/xlink" x="0px" y="0px" viewBox="0 0 512 512" style="width: 256px; height: 256px; opacity: 1;" xml:space="preserve">
<style type="text/css">
	.st0{fill:#4B4B4B;}
</style>
<g>
	<path class="st0" d="M511.457,266.314c-0.713-2.238-2.03-6.431-4.392-13.874c-7.749-24.456-50.173-110.175-50.173-110.175
		c-2.412-5.312-7.873-8.412-13.525-7.707l-52.519,6.605c-3.547,0.448-6.664,2.636-8.354,5.868c0,0-6.083,10.26-8.669,16.641
		c-2.578,6.374-1.028,12.746,4.135,16.476c5.163,3.713,29.952,10.094,34.601,7.972c7.807-3.58,11.876-19.674,11.876-19.674
		l11.885-2.122c0,0,4.956,17.504,4.118,32.96c-1.027,19.136,2.072,32.421,4.658,48.905c-17.048-23.927-58.105-39.076-77.465-9.573
		c-5.237-4.624-18.008-13.285-37.236-15.497c-14.255-1.948-31.394,2.743-31.394,2.743c-3.1-3.198-6.97-18.348-6.97-24.722
		l6.199-4.781v-24.714c0,0,5.42-6.381,7.741-13.558c2.329-7.177,0.779-21.531-6.97-20.736c0,0,0.804-6.63,1.168-14.918l0.356-1.028
		c-0.066-0.828-0.149-1.641-0.24-2.437c0.24-9.116-0.224-19.293-2.835-24.672c-5.42-11.163-26.363-10.368-26.363-10.368
		s-10.84-0.928-17.487-0.854c-19.434-4.5-21.241-11.901-21.241-11.901s-12.398,11.959-17.818,23.122
		c-5.42,11.163-1.55,43.054-1.55,43.054c-7.749-0.795-9.299,13.559-6.97,20.736c2.329,7.177,7.749,13.558,7.749,13.558v24.714
		l6.191,4.781c0,6.374-3.862,21.524-6.97,24.722c0,0-17.13-4.69-31.385-2.743c-19.236,2.212-31.999,10.873-37.245,15.497
		c-19.36-29.503-60.416-14.354-77.456,9.573c2.577-16.484,5.685-29.769,4.649-48.905c-0.837-15.456,4.128-32.96,4.128-32.96
		l11.876,2.122c0,0,4.061,16.095,11.876,19.674c4.65,2.122,29.438-4.259,34.601-7.972c5.171-3.73,6.713-10.102,4.135-16.476
		c-2.586-6.382-8.669-16.641-8.669-16.641c-1.69-3.232-4.807-5.42-8.346-5.868l-52.527-6.605
		c-5.652-0.704-11.106,2.396-13.525,7.707c0,0-42.416,85.719-50.165,110.175c-2.37,7.443-3.688,11.636-4.4,13.874
		c-1.857,5.868,1.202,12.191,6.871,14.188l33.158,11.537c0,0,25.559,15.945,50.09,22.592c15.987,4.334,36.034,13.053,48.823,10.417
		c4.566,25.195,10.516,37.643,31.178,54.731c0,0,6.34,28.593,16.567,39.996c0,0,0,16.658,2.561,21.051h132.428
		c2.561-4.393,2.561-21.051,2.561-21.051c10.227-11.403,16.559-39.996,16.559-39.996c20.67-17.088,26.612-29.536,31.186-54.731
		c12.78,2.636,32.836-6.083,48.822-10.417c24.524-6.647,50.091-22.592,50.091-22.592l33.15-11.537
		C510.256,278.505,513.314,272.181,511.457,266.314z" style="fill: rgb(255, 255, 255);"></path>
</g>
</svg>
