<!--?xml version="1.0" encoding="utf-8"?-->
<!-- Generator: Adobe Illustrator 15.1.0, SVG Export Plug-In . SVG Version: 6.00 Build 0)  -->

<svg version="1.1" id="_x32_" xmlns="http://www.w3.org/2000/svg" xmlns:xlink="http://www.w3.org/1999/xlink" x="0px" y="0px" width="512px" height="512px" viewBox="0 0 512 512" style="width: 256px; height: 256px; opacity: 1;" xml:space="preserve">
<style type="text/css">

	.st0{fill:#4B4B4B;}

</style>
<g>
	<path class="st0" d="M443.656,305.719c1.844-9.063,11-16.984,20.344-17.594l31.031-2.078c9.328-0.609,16.969-8.781,16.969-18.141
		v-23.813c0-9.359-7.641-17.531-16.969-18.141l-31-2.063c-9.344-0.625-18.094-6.25-19.484-12.516
		c-1.375-6.25-0.078-26.375,7.688-31.594l25.797-17.281c7.766-5.203,10.297-16.094,5.625-24.188l-11.906-20.625
		c-4.688-8.094-15.375-11.359-23.781-7.219l-27.906,13.719c-8.375,4.125-18.781,3.656-23.063-1.031
		c-4.297-4.688-13.313-22.844-9.188-31.219l13.719-27.906c4.125-8.406,0.875-19.094-7.219-23.781l-20.625-11.906
		c-8.094-4.672-18.984-2.141-24.188,5.625l-17.313,25.813c-5.203,7.781-12.172,13.188-15.484,11.984c0,0,0,0-3.078-0.953
		c-7.906-2.469-7.906-2.469-7.906-2.469C296.656,66.5,288.75,57.328,288.125,48l-2.078-31.031C285.438,7.641,277.266,0,267.906,0
		h-23.813c-9.359,0-17.531,7.641-18.141,16.969l-2.078,31c-0.609,9.344-6.25,18.094-12.5,19.484
		c-6.25,1.375-26.375,0.078-31.594-7.688L162.5,33.969c-5.203-7.766-16.094-10.297-24.188-5.625L117.688,40.25
		c-8.094,4.688-11.344,15.375-7.219,23.781l13.719,27.906c4.125,8.375,3.656,18.766-1.031,23.063
		c-4.703,4.297-22.844,13.313-31.219,9.188l-27.922-13.719c-8.391-4.141-19.078-0.875-23.766,7.219l-11.906,20.625
		c-4.672,8.094-2.141,18.984,5.625,24.188l25.813,17.297c7.781,5.203,13.172,12.188,12,15.484c0,0,0,0-0.969,3.078
		c-2.469,7.922-2.469,7.922-2.469,7.922C66.5,215.344,57.328,223.25,48,223.891l-31.031,2.063C7.625,226.563,0,234.734,0,244.094
		v23.813c0,9.359,7.625,17.531,16.969,18.141l31,2.078c9.344,0.609,18.094,6.234,19.484,12.5c1.375,6.25,0.078,26.375-7.688,31.594
		L33.969,349.5c-7.766,5.203-10.297,16.094-5.625,24.188l11.906,20.625c4.688,8.094,15.375,11.344,23.766,7.219l27.922-13.719
		c8.375-4.125,18.766-3.656,23.063,1.031c4.281,4.688,13.313,22.844,9.188,31.219l-13.719,27.922
		c-4.141,8.391-0.875,19.078,7.219,23.766l20.625,11.906c8.094,4.672,18.984,2.141,24.188-5.625l17.313-25.813
		c5.188-7.781,12.156-13.188,15.469-12c0,0,0,0,3.078,0.969c7.922,2.469,7.922,2.469,7.922,2.469
		c9.063,1.844,16.969,11,17.594,20.344l2.078,31.031c0.609,9.328,8.781,16.969,18.141,16.969h23.813
		c9.359,0,17.531-7.641,18.141-16.969l2.063-31c0.625-9.344,6.25-18.094,12.516-19.484c6.25-1.375,26.375-0.078,31.594,7.672
		l17.281,25.813c5.203,7.766,16.094,10.297,24.188,5.625l20.625-11.906c8.094-4.688,11.344-15.375,7.219-23.766l-13.719-27.922
		c-4.125-8.375-3.656-18.766,1.031-23.063s22.844-13.313,31.219-9.188l27.906,13.719c8.406,4.141,19.094,0.875,23.781-7.219
		l11.906-20.625c4.672-8.094,2.141-18.984-5.625-24.188l-25.813-17.313c-7.781-5.188-13.172-12.172-12-15.469c0,0,0,0,0.969-3.078
		C443.656,305.719,443.656,305.719,443.656,305.719z M303.047,275.844c-3.813,9.063-10.391,17-18.563,22.5
		c-4.078,2.781-8.547,4.938-13.281,6.406s-9.766,2.281-15.203,2.281c-7.25,0-13.781-1.438-19.844-3.984
		c-9.063-3.828-17-10.391-22.5-18.563c-2.781-4.094-4.938-8.547-6.406-13.281s-2.281-9.766-2.281-15.203
		c0-7.25,1.438-13.781,3.984-19.844c3.813-9.063,10.391-17,18.563-22.516c4.078-2.766,8.547-4.922,13.281-6.391
		s9.766-2.281,15.203-2.281c7.25,0.016,13.781,1.422,19.844,3.984c9.063,3.813,17,10.391,22.5,18.563
		c2.766,4.078,4.938,8.547,6.406,13.281s2.281,9.766,2.281,15.203C307.016,263.25,305.594,269.781,303.047,275.844z" style="fill: rgb(255, 255, 255);"></path>
</g>
</svg>
