<!--?xml version="1.0" encoding="utf-8"?-->
<!-- Generator: Adobe Illustrator 18.1.1, SVG Export Plug-In . SVG Version: 6.00 Build 0)  -->

<svg version="1.1" id="_x32_" xmlns="http://www.w3.org/2000/svg" xmlns:xlink="http://www.w3.org/1999/xlink" x="0px" y="0px" viewBox="0 0 512 512" style="width: 256px; height: 256px; opacity: 1;" xml:space="preserve">
<style type="text/css">
	.st0{fill:#4B4B4B;}
</style>
<g>
	<path class="st0" d="M251.886,366.88V253.786c0.014-17.658-5.696-36.754-15.754-54.689c-10.028-17.927-24.358-34.648-41.071-47.651
		c-11.137-8.664-23.316-15.686-35.922-20.415c-11.826-4.436-22.881-6.453-32.759-6.453c-4.632,0-8.986,0.457-13.07,1.296
		l-13.048,8.978l-0.473,0.27c-6.76,3.92-12.164,9.406-16.098,16.743c-3.897,7.33-6.281,16.593-6.281,27.843v126.12l162.538,61.052
		H251.886z M209.375,298.708l-92.372-34.693V237.26l92.372,34.7V298.708z" style="fill: rgb(255, 255, 255);"></path>
	<path class="st0" d="M388.117,458.435c-2.376-3.529-6.326-7.42-11.834-11.182c-3.658-2.511-7.997-4.939-12.921-7.217
		c-6.55-3.051-14.135-5.801-22.522-8.102c-7.142-1.971-14.862-3.605-23.024-4.872v25.744c0.008,6.626-1.596,12.831-4.519,18.07
		c-2.923,5.262-7.09,9.503-11.804,12.606c-3.156,2.068-6.543,3.665-10.036,4.811c-4.662,1.522-9.503,2.264-14.344,2.264
		c-5.097,0-10.2-0.825-15.049-2.571c-4.842-1.739-9.444-4.437-13.288-8.214c-2.556-2.503-4.744-5.486-6.378-8.829
		c-2.181-4.482-3.328-9.563-3.32-14.929v-28.57c-10.194,1.679-19.674,3.958-28.143,6.708c-11.722,3.806-21.518,8.536-28.63,13.527
		c-4.759,3.328-8.304,6.738-10.612,9.908c-1.334,1.814-2.263,3.537-2.893,5.156c-0.704,1.866-1.027,3.59-1.034,5.367
		c0.007,1.76,0.322,3.47,1.019,5.313c0.697,1.844,1.798,3.815,3.417,5.891c3.208,4.152,8.536,8.664,15.784,12.823
		c4.826,2.796,10.485,5.419,16.826,7.794c8.454,3.156,18.122,5.846,28.668,7.855c14.06,2.698,29.686,4.212,46.122,4.212
		c18.872,0,36.679-2.001,52.275-5.486c15.597-3.463,28.982-8.462,38.928-14.135c6.64-3.77,11.714-7.832,15.042-11.662
		c1.903-2.196,3.252-4.302,4.136-6.258c1.004-2.233,1.439-4.257,1.447-6.348c0-1.544-0.247-3.043-0.772-4.632
		C390.133,461.89,389.308,460.212,388.117,458.435z" style="fill: rgb(255, 255, 255);"></path>
	<path class="st0" d="M263.517,471.214c1.604,1.026,3.395,1.851,5.322,2.458c2.548,0.802,5.381,1.229,8.206,1.229h0.127
		c3.448,0,6.926-0.629,10.013-1.791c3.268-1.229,6.063-2.982,8.312-5.239c1.588-1.581,2.826-3.328,3.8-5.328
		c1.379-2.908,2.069-6.094,2.084-9.736v-75.134c0-2.563-1.514-4.916-3.912-6.078c-1.019-0.495-2.143-0.742-3.253-0.742
		c-1.483,0-2.952,0.428-4.197,1.282l-29.514,20.303c-0.652,0.203-1.281,0.495-1.866,0.87c-1.956,1.274-3.125,3.38-3.125,5.628
		v57.102c0.015,3.485,0.749,6.468,2.248,9.166C259.118,467.609,260.984,469.565,263.517,471.214z" style="fill: rgb(255, 255, 255);"></path>
	<path class="st0" d="M430.649,99.028c-2.593-8.912-6.416-17.905-11.317-26.629c-9.758-17.455-23.758-33.794-40.022-46.43
		c-10.837-8.439-22.649-15.236-34.805-19.794C333.113,1.889,322.575,0,313.297,0c-10.358,0.015-19.096,2.316-26.216,6.333
		L139.525,107.842c8.566,1.139,17.402,3.372,26.419,6.76c21.937,8.252,41.94,22.064,58.511,38.934
		c16.563,16.886,29.709,36.852,37.668,57.762c4.602,12.096,7.464,24.53,8.139,36.851h0.165v5.636V366.43l164.164-112.93v-128.31
		C434.591,116.768,433.243,107.946,430.649,99.028z" style="fill: rgb(255, 255, 255);"></path>
</g>
</svg>
